<?xml version="1.0" standalone="no"?>
<!DOCTYPE svg PUBLIC "-//W3C//DTD SVG 1.1//EN"
"http://www.w3.org/Graphics/SVG/1.1/DTD/svg11.dtd">
<!-- Creator: fig2dev Version 3.2 Patchlevel 5e -->
<!-- CreationDate: Fri Feb 17 14:55:13 2017 -->
<!-- Magnification: 1.050 -->
<svg	xmlns="http://www.w3.org/2000/svg"
	xmlns:xlink="http://www.w3.org/1999/xlink"
	width="3.0in" height="2.3in"
	viewBox="81 31 3647 2768">
<g style="stroke-width:.025in; fill:none">
<!-- Arc -->
<path style="stroke:#0000ff;stroke-width:8;stroke-linecap:butt;"
d="M 1889,708 A 746 746  0  0  1  2551  283 " />
<!-- Arc -->
<path style="stroke:#0000ff;stroke-width:8;stroke-linecap:butt;"
d="M 708,2598 A 695 695  0  0  0  1417  2125 " />
<!-- Arc -->
<path style="stroke:#803000;stroke-width:8;stroke-linecap:butt;"
d="M 472,236 A 1583 1583  0  0  0  944  1417 " />
<!-- Arc -->
<path style="stroke:#803000;stroke-width:8;stroke-linecap:butt;"
d="M 944,1417 A 5558 5558  0  0  0  2362  2220 " />
<!-- Arc -->
<path style="stroke:#803000;stroke-width:8;stroke-linecap:butt;"
d="M 2362,2220 A 2435 2435  0  0  0  3307  2362 " />
<!-- Line -->
<polyline points="236,2692
236,219
" style="stroke:#000000;stroke-width:8;
stroke-linejoin:miter; stroke-linecap:butt;
"/>
<!-- Arrowhead on XXXpoint 236 2692 - 236 78-->
<polygon points="267 221
236 95
204 221
267 221

" style="stroke:#000000;stroke-width:8;stroke-miterlimit:8;
fill:#000000;"/>
<!-- Line -->
<polyline points="94,2598
3322,2598
" style="stroke:#000000;stroke-width:8;
stroke-linejoin:miter; stroke-linecap:butt;
"/>
<!-- Arrowhead on XXXpoint 94 2598 - 3464 2598-->
<polygon points="3321 2629
3447 2598
3321 2566
3321 2629

" style="stroke:#000000;stroke-width:8;stroke-miterlimit:8;
fill:#000000;"/>
<!-- Line -->
<polyline points="1653,47
1653,2787
" style="stroke:#ff0000;stroke-width:8;
stroke-linejoin:miter; stroke-linecap:butt;
"/>
<!-- Line -->
<polyline points="2551,283
3307,283
" style="stroke:#0000ff;stroke-width:8;
stroke-linejoin:miter; stroke-linecap:butt;
"/>
<!-- Line -->
<polyline points="1417,2125
1889,708
" style="stroke:#0000ff;stroke-width:8;
stroke-linejoin:miter; stroke-linecap:butt;
"/>
<!-- Text -->
<text xml:space="preserve" x="519" y="283" fill="#803000"  font-family="Times" font-style="normal" font-weight="normal" font-size="152" text-anchor="start">rate</text>
<!-- Text -->
<text xml:space="preserve" x="2551" y="425" fill="#0000ff"  font-family="Times" font-style="normal" font-weight="normal" font-size="152" text-anchor="start">turn-on</text>
<!-- Text -->
<text xml:space="preserve" x="2551" y="566" fill="#0000ff"  font-family="Times" font-style="normal" font-weight="normal" font-size="152" text-anchor="start">(efficiency)</text>
<!-- Text -->
<text xml:space="preserve" x="1700" y="188" fill="#ff0000"  font-family="Times" font-style="normal" font-weight="normal" font-size="152" text-anchor="start">threshold</text>
<!-- Text -->
<g transform="translate(1606,2551) rotate(-90.00021046)" >
<text xml:space="preserve" x="0" y="0" fill="#000000"  font-family="Times" font-style="normal" font-weight="normal" font-size="126" text-anchor="start">positives</text>
</g><!-- Text -->
<text xml:space="preserve" x="1795" y="2456" fill="#000000"  font-family="Times" font-style="normal" font-weight="normal" font-size="126" text-anchor="start">positives</text>
<!-- Text -->
<text xml:space="preserve" x="1795" y="2314" fill="#000000"  font-family="Times" font-style="normal" font-weight="normal" font-size="126" text-anchor="start">true</text>
<!-- Text -->
<g transform="translate(1464,2551) rotate(-90.00021046)" >
<text xml:space="preserve" x="0" y="0" fill="#000000"  font-family="Times" font-style="normal" font-weight="normal" font-size="126" text-anchor="start">false</text>
</g></g>
</svg>
